<svg xmlns="http://www.w3.org/2000/svg" width="53" height="21" fill="none" viewBox="0 0 53 21"><path fill="#dac5a7" d="M7.002 19.598c2.317 0 4.206-1.272 5.138-3.13v2.876h1.486v-6.21c0-3.616-2.82-6.416-6.422-6.416C3.55 6.718.806 9.62.806 13.133c0 3.563 2.67 6.465 6.196 6.465m.202-1.502c-2.696 0-4.836-2.24-4.836-4.938S4.508 8.22 7.204 8.22c2.72 0 4.86 2.24 4.86 4.938s-2.14 4.938-4.86 4.938M20.112 19.344v-7.535c0-2.113 1.159-3.462 3.023-3.462a3.9 3.9 0 0 1 1.99.535V7.278c-.63-.305-1.36-.458-2.116-.458-2.821 0-4.459 2.036-4.459 4.913v7.61ZM29.024 4.02c.63 0 1.108-.51 1.108-1.17 0-.663-.479-1.172-1.108-1.172s-1.134.51-1.134 1.171c0 .662.504 1.171 1.134 1.171m-.781 2.978v12.345h1.562V6.999ZM37.124 19.344V13.82h1.788c.126.382.328.764.655 1.095l4.358 4.429h2.04l-5.315-5.422c-.252-.255-.403-.51-.403-.764 0-.28.151-.509.403-.763l5.34-5.397h-1.965l-4.407 4.455c-.303.305-.53.636-.655.967h-1.839V1.296h-1.562v18.047ZM51.017 19.547c.63 0 1.133-.509 1.133-1.17 0-.637-.504-1.12-1.133-1.12s-1.134.483-1.134 1.12c0 .661.504 1.17 1.134 1.17"/></svg>