<svg aria-hidden="true" style="position: absolute; width: 0; height: 0; overflow: hidden;" version="1.1" xmlns="http://www.w3.org/2000/svg" xmlns:xlink="http://www.w3.org/1999/xlink">
<defs>
<symbol id="icon-arrow-up" viewBox="0 0 32 32">
<path fill="#dac5a7" style="fill: var(--color1, #dac5a7)" d="M25.525 14.525c-0.068 0.071-0.149 0.128-0.239 0.166s-0.187 0.059-0.286 0.059c-0.098 0-0.195-0.020-0.286-0.059s-0.172-0.095-0.239-0.166l-7.725-7.712v20.188c0 0.199-0.079 0.39-0.22 0.53s-0.331 0.22-0.53 0.22-0.39-0.079-0.53-0.22c-0.141-0.141-0.22-0.331-0.22-0.53v-20.188l-7.725 7.712c-0.139 0.139-0.328 0.217-0.525 0.217s-0.386-0.078-0.525-0.217c-0.139-0.139-0.217-0.328-0.217-0.525s0.078-0.386 0.217-0.525l9-9c0.068-0.071 0.149-0.128 0.239-0.166s0.187-0.059 0.286-0.059c0.098 0 0.195 0.020 0.286 0.059s0.172 0.095 0.239 0.166l9 9c0.071 0.068 0.128 0.149 0.166 0.239s0.059 0.187 0.059 0.286c0 0.098-0.020 0.195-0.059 0.286s-0.095 0.172-0.166 0.239z"></path>
</symbol>
<symbol id="icon-behance" viewBox="0 0 32 32">
<path fill="#dac5a7" style="fill: var(--color1, #dac5a7)" d="M20.25 10c0-0.199 0.079-0.39 0.22-0.53s0.331-0.22 0.53-0.22h8c0.199 0 0.39 0.079 0.53 0.22s0.22 0.331 0.22 0.53-0.079 0.39-0.22 0.53c-0.141 0.141-0.331 0.22-0.53 0.22h-8c-0.199 0-0.39-0.079-0.53-0.22s-0.22-0.331-0.22-0.53zM30.75 19c0 0.199-0.079 0.39-0.22 0.53s-0.331 0.22-0.53 0.22h-9.187c0.178 0.981 0.695 1.869 1.46 2.508s1.73 0.991 2.727 0.992c0.558 0.003 1.112-0.105 1.627-0.32s0.982-0.531 1.373-0.93c0.142-0.138 0.333-0.215 0.531-0.215s0.389 0.077 0.531 0.215c0.071 0.069 0.128 0.151 0.167 0.243s0.059 0.189 0.059 0.289-0.020 0.197-0.059 0.289c-0.039 0.091-0.096 0.174-0.167 0.243-0.941 0.94-2.18 1.524-3.504 1.654s-2.652-0.205-3.758-0.945c-1.105-0.74-1.92-1.841-2.305-3.114s-0.316-2.641 0.194-3.87c0.51-1.229 1.431-2.242 2.605-2.868s2.529-0.825 3.833-0.565c1.305 0.261 2.478 0.966 3.321 1.996s1.303 2.319 1.301 3.649zM29.187 18.25c-0.171-0.987-0.685-1.881-1.451-2.526s-1.735-0.998-2.736-0.998-1.97 0.354-2.736 0.998c-0.766 0.645-1.28 1.539-1.451 2.526h8.375zM17.25 19.75c0 1.326-0.527 2.598-1.464 3.536s-2.209 1.464-3.536 1.464h-8.25c-0.199 0-0.39-0.079-0.53-0.22s-0.22-0.331-0.22-0.53v-16c0-0.199 0.079-0.39 0.22-0.53s0.331-0.22 0.53-0.22h6.75c0.9-0 1.779 0.27 2.524 0.774s1.322 1.221 1.655 2.057c0.334 0.836 0.409 1.752 0.217 2.631s-0.644 1.68-1.297 2.3c0.991 0.335 1.852 0.972 2.462 1.822s0.938 1.87 0.938 2.916zM4.75 14.75h6c0.796 0 1.559-0.316 2.121-0.879s0.879-1.326 0.879-2.121-0.316-1.559-0.879-2.121c-0.563-0.563-1.326-0.879-2.121-0.879h-6v6zM15.75 19.75c-0.003-0.927-0.373-1.816-1.029-2.471s-1.544-1.025-2.471-1.029h-7.5v7h7.5c0.927-0.003 1.816-0.373 2.471-1.029s1.025-1.544 1.029-2.471z"></path>
</symbol>
<symbol id="icon-check" viewBox="0 0 32 32">
<path fill="#dac5a7" style="fill: var(--color1, #dac5a7)" d="M13 23.75c-0.098 0-0.195-0.020-0.286-0.059s-0.172-0.095-0.239-0.166l-7-7c-0.069-0.069-0.124-0.151-0.161-0.241s-0.056-0.187-0.056-0.284c0-0.098 0.019-0.194 0.056-0.284s0.092-0.172 0.161-0.241 0.151-0.124 0.241-0.161c0.090-0.037 0.187-0.057 0.284-0.057s0.194 0.019 0.284 0.057c0.090 0.037 0.172 0.092 0.241 0.161l6.475 6.463 13.475-13.463c0.139-0.139 0.328-0.217 0.525-0.217s0.386 0.078 0.525 0.217c0.139 0.139 0.217 0.328 0.217 0.525s-0.078 0.386-0.217 0.525l-14 14c-0.068 0.071-0.149 0.128-0.239 0.166s-0.187 0.059-0.286 0.059z"></path>
</symbol>
<symbol id="icon-dribbble" viewBox="0 0 32 32">
<path fill="#dac5a7" style="fill: var(--color1, #dac5a7)" d="M28.75 16.088v-0.088c0.001-1.895-0.421-3.767-1.237-5.477s-2.003-3.218-3.476-4.41l-0.062-0.063-0.063-0.050c-2.25-1.786-5.040-2.756-7.913-2.75-1.91-0.005-3.795 0.427-5.512 1.263l-0.15 0.063c-1.742 0.869-3.263 2.123-4.448 3.667s-2.002 3.338-2.39 5.246v0.025c-0.167 0.819-0.251 1.652-0.25 2.487 0 1.981 0.463 3.934 1.35 5.705s2.176 3.31 3.762 4.495l0.125 0.1h0.025c2.173 1.589 4.795 2.447 7.487 2.45 1.444 0.004 2.877-0.241 4.237-0.725l0.075-0.025c2.45-0.886 4.571-2.499 6.079-4.624s2.331-4.659 2.359-7.264v-0.025zM27.225 15.288c-0.4-0.025-0.813-0.038-1.225-0.038-1.911-0.002-3.813 0.263-5.65 0.788-0.463-1.403-1.066-2.756-1.8-4.038l-0.063-0.088c1.912-1.126 3.633-2.548 5.1-4.213 2.152 1.961 3.456 4.682 3.638 7.588zM22.413 6.763c-1.359 1.543-2.959 2.856-4.737 3.888-1.438-2.071-3.238-3.867-5.313-5.3 1.669-0.567 3.448-0.735 5.193-0.49s3.409 0.897 4.857 1.902zM10.713 6.075c2.213 1.364 4.127 3.163 5.625 5.287-2.603 1.244-5.452 1.889-8.337 1.887-0.954-0.002-1.906-0.073-2.85-0.213 0.405-1.478 1.108-2.857 2.064-4.054s2.147-2.187 3.498-2.908zM4.75 16c0.002-0.497 0.035-0.994 0.1-1.487 1.043 0.154 2.096 0.233 3.15 0.237 3.177 0.006 6.313-0.721 9.163-2.125l0.087 0.137c0.687 1.184 1.249 2.437 1.675 3.737-1.131 0.404-2.223 0.91-3.263 1.513-2.8 1.604-5.185 3.844-6.963 6.537-1.238-1.054-2.232-2.365-2.914-3.841s-1.035-3.083-1.036-4.709zM9.9 25.45c2.268-3.438 5.568-6.068 9.425-7.512 0.36 1.481 0.541 3.001 0.537 4.525 0.005 1.434-0.154 2.865-0.475 4.263-1.578 0.5-3.246 0.645-4.886 0.425s-3.211-0.801-4.601-1.7zM21.063 26.050c0.2-1.185 0.3-2.385 0.3-3.587 0.002-1.681-0.2-3.355-0.6-4.987 1.705-0.479 3.467-0.723 5.237-0.725 0.413 0 0.813 0.013 1.225 0.038-0.139 1.945-0.779 3.821-1.859 5.444s-2.563 2.939-4.303 3.818z"></path>
</symbol>
<symbol id="icon-envelope" viewBox="0 0 32 32">
<path fill="#dac5a7" style="fill: var(--color1, #dac5a7)" d="M28 6.25h-24c-0.199 0-0.39 0.079-0.53 0.22s-0.22 0.331-0.22 0.53v17c0 0.464 0.184 0.909 0.513 1.237s0.773 0.513 1.237 0.513h22c0.464 0 0.909-0.184 1.237-0.513s0.513-0.773 0.513-1.237v-17c0-0.199-0.079-0.39-0.22-0.53s-0.331-0.22-0.53-0.22zM26.075 7.75l-10.075 9.237-10.075-9.237h20.15zM27 24.25h-22c-0.066 0-0.13-0.026-0.177-0.073s-0.073-0.111-0.073-0.177v-15.3l10.737 9.85c0.14 0.127 0.323 0.198 0.513 0.198s0.372-0.071 0.513-0.198l10.737-9.85v15.3c0 0.066-0.026 0.13-0.073 0.177s-0.111 0.073-0.177 0.073z"></path>
</symbol>
<symbol id="icon-facebook" viewBox="0 0 32 32">
<path fill="#dac5a7" style="fill: var(--color1, #dac5a7)" d="M28.75 16c0-2.522-0.748-4.987-2.149-7.084s-3.392-3.731-5.722-4.696-4.893-1.218-7.367-0.726c-2.473 0.492-4.745 1.706-6.528 3.489s-2.997 4.055-3.489 6.528c-0.492 2.473-0.239 5.037 0.726 7.367s2.599 4.321 4.696 5.722c2.097 1.401 4.562 2.149 7.084 2.149 3.381-0.003 6.622-1.348 9.012-3.738s3.735-5.631 3.738-9.012zM16.75 27.225v-8.475h3.25c0.199 0 0.39-0.079 0.53-0.22s0.22-0.331 0.22-0.53-0.079-0.39-0.22-0.53c-0.141-0.141-0.331-0.22-0.53-0.22h-3.25v-3.25c0.003-0.596 0.241-1.166 0.663-1.587s0.992-0.659 1.587-0.663h2c0.199 0 0.39-0.079 0.53-0.22s0.22-0.331 0.22-0.53-0.079-0.39-0.22-0.53c-0.141-0.141-0.331-0.22-0.53-0.22h-2c-0.994 0.003-1.945 0.399-2.648 1.102s-1.099 1.654-1.102 2.648v3.25h-3.25c-0.199 0-0.39 0.079-0.53 0.22s-0.22 0.331-0.22 0.53 0.079 0.39 0.22 0.53c0.141 0.141 0.331 0.22 0.53 0.22h3.25v8.475c-2.912-0.195-5.635-1.513-7.593-3.678s-2.998-5.005-2.901-7.922 1.325-5.682 3.423-7.711c2.098-2.029 4.902-3.163 7.821-3.163s5.723 1.134 7.821 3.163 3.325 4.794 3.423 7.711c0.097 2.917-0.943 5.758-2.901 7.922s-4.681 3.483-7.593 3.678z"></path>
</symbol>
<symbol id="icon-info" viewBox="0 0 32 32">
<path fill="#dac5a7" style="fill: var(--color1, #dac5a7)" d="M17.75 22c0 0.199-0.079 0.39-0.22 0.53s-0.331 0.22-0.53 0.22c-0.464 0-0.909-0.184-1.237-0.513s-0.513-0.773-0.513-1.237v-5c0-0.066-0.026-0.13-0.073-0.177s-0.111-0.073-0.177-0.073c-0.199 0-0.39-0.079-0.53-0.22s-0.22-0.331-0.22-0.53 0.079-0.39 0.22-0.53c0.141-0.141 0.331-0.22 0.53-0.22 0.464 0 0.909 0.184 1.237 0.513s0.513 0.773 0.513 1.237v5c0 0.066 0.026 0.13 0.073 0.177s0.111 0.073 0.177 0.073c0.199 0 0.39 0.079 0.53 0.22s0.22 0.331 0.22 0.53zM15.5 11.75c0.247 0 0.489-0.073 0.695-0.211s0.366-0.333 0.46-0.561c0.095-0.228 0.119-0.48 0.071-0.722s-0.167-0.465-0.342-0.64c-0.175-0.175-0.397-0.294-0.64-0.342s-0.494-0.023-0.722 0.071c-0.228 0.095-0.424 0.255-0.561 0.46s-0.211 0.447-0.211 0.694c0 0.332 0.132 0.649 0.366 0.884s0.552 0.366 0.884 0.366zM28.75 16c0 2.522-0.748 4.987-2.149 7.083s-3.392 3.731-5.722 4.696-4.893 1.217-7.367 0.726c-2.473-0.492-4.745-1.706-6.528-3.489s-2.997-4.055-3.489-6.528c-0.492-2.473-0.239-5.037 0.726-7.367s2.599-4.321 4.696-5.722c2.097-1.401 4.562-2.149 7.084-2.149 3.38 0.004 6.621 1.349 9.011 3.739s3.735 5.631 3.739 9.011zM27.25 16c0-2.225-0.66-4.4-1.896-6.25s-2.993-3.292-5.049-4.143c-2.056-0.851-4.318-1.074-6.5-0.64s-4.187 1.506-5.76 3.079c-1.573 1.573-2.645 3.578-3.079 5.76s-0.211 4.444 0.64 6.5c0.851 2.056 2.293 3.813 4.143 5.049s4.025 1.896 6.25 1.896c2.983-0.003 5.842-1.19 7.951-3.299s3.295-4.969 3.299-7.951z"></path>
</symbol>
<symbol id="icon-instagram" viewBox="0 0 32 32">
<path fill="#dac5a7" style="fill: var(--color1, #dac5a7)" d="M16 10.25c-1.137 0-2.249 0.337-3.195 0.969s-1.683 1.53-2.118 2.581c-0.435 1.051-0.549 2.207-0.327 3.322s0.77 2.14 1.574 2.944 1.829 1.352 2.944 1.574c1.115 0.222 2.271 0.108 3.322-0.327s1.949-1.172 2.581-2.118c0.632-0.946 0.969-2.057 0.969-3.195 0-1.525-0.606-2.988-1.684-4.066s-2.541-1.684-4.066-1.684zM16 20.25c-0.841 0-1.662-0.249-2.361-0.716s-1.244-1.131-1.565-1.907-0.406-1.631-0.242-2.456c0.164-0.824 0.569-1.582 1.163-2.176s1.352-0.999 2.176-1.163c0.825-0.164 1.679-0.080 2.456 0.242s1.44 0.866 1.907 1.565c0.467 0.699 0.716 1.521 0.716 2.361-0.003 1.126-0.452 2.205-1.248 3.002s-1.875 1.245-3.002 1.248zM21.5 3.75h-11c-1.79 0-3.507 0.711-4.773 1.977s-1.977 2.983-1.977 4.773v11c0 1.79 0.711 3.507 1.977 4.773s2.983 1.977 4.773 1.977h11c1.79 0 3.507-0.711 4.773-1.977s1.977-2.983 1.977-4.773v-11c0-1.79-0.711-3.507-1.977-4.773s-2.983-1.977-4.773-1.977zM26.75 21.5c0 1.392-0.553 2.728-1.538 3.712s-2.32 1.538-3.712 1.538h-11c-1.392 0-2.728-0.553-3.712-1.538s-1.538-2.32-1.538-3.712v-11c0-1.392 0.553-2.728 1.538-3.712s2.32-1.538 3.712-1.538h11c1.392 0 2.728 0.553 3.712 1.538s1.538 2.32 1.538 3.712v11zM23.75 9.5c0 0.247-0.073 0.489-0.211 0.694s-0.333 0.366-0.561 0.46c-0.228 0.095-0.48 0.119-0.722 0.071s-0.465-0.167-0.64-0.342c-0.175-0.175-0.294-0.398-0.342-0.64s-0.023-0.494 0.071-0.722c0.095-0.228 0.255-0.424 0.46-0.561s0.447-0.211 0.694-0.211c0.331 0 0.649 0.132 0.884 0.366s0.366 0.552 0.366 0.884z"></path>
</symbol>
<symbol id="icon-link" viewBox="0 0 32 32">
<path fill="#dac5a7" style="fill: var(--color1, #dac5a7)" d="M17.016 23.471c0.070 0.070 0.125 0.152 0.163 0.243s0.057 0.189 0.057 0.287c0 0.099-0.019 0.196-0.057 0.287s-0.093 0.174-0.163 0.243l-1.244 1.243c-1.266 1.266-2.983 1.977-4.774 1.977s-3.508-0.711-4.774-1.977c-1.266-1.266-1.977-2.983-1.977-4.774s0.711-3.508 1.977-4.774l3.014-3.015c1.217-1.219 2.854-1.926 4.576-1.977s3.398 0.558 4.685 1.703c0.074 0.066 0.134 0.145 0.177 0.234s0.068 0.185 0.074 0.284c0.006 0.099-0.008 0.197-0.040 0.291s-0.083 0.179-0.149 0.253c-0.066 0.074-0.145 0.134-0.234 0.177s-0.186 0.068-0.284 0.074c-0.099 0.006-0.197-0.008-0.291-0.040s-0.179-0.083-0.253-0.149c-1.001-0.889-2.304-1.362-3.642-1.323s-2.611 0.589-3.558 1.536l-3.015 3.010c-0.985 0.985-1.538 2.321-1.538 3.714s0.553 2.729 1.538 3.714c0.985 0.985 2.321 1.538 3.714 1.538s2.729-0.553 3.714-1.538l1.242-1.244c0.070-0.070 0.152-0.125 0.243-0.163s0.189-0.057 0.287-0.057c0.099 0 0.196 0.019 0.287 0.057s0.174 0.093 0.243 0.163zM25.775 6.221c-1.267-1.265-2.984-1.975-4.774-1.975s-3.507 0.71-4.774 1.975l-1.244 1.242c-0.141 0.141-0.22 0.332-0.22 0.531s0.079 0.39 0.22 0.531c0.141 0.141 0.332 0.22 0.531 0.22s0.39-0.079 0.531-0.22l1.243-1.25c0.985-0.985 2.321-1.538 3.714-1.538s2.729 0.553 3.714 1.538c0.985 0.985 1.538 2.321 1.538 3.714s-0.553 2.729-1.538 3.714l-3.015 3.024c-0.947 0.947-2.219 1.497-3.558 1.536s-2.641-0.433-3.642-1.323c-0.149-0.133-0.345-0.201-0.544-0.189s-0.386 0.102-0.518 0.251c-0.133 0.149-0.2 0.345-0.189 0.544s0.102 0.386 0.251 0.518c1.287 1.144 2.963 1.753 4.684 1.702s3.358-0.758 4.575-1.976l3.014-3.015c0.628-0.627 1.126-1.371 1.466-2.19s0.515-1.698 0.515-2.585c0-0.887-0.174-1.765-0.514-2.585s-0.837-1.564-1.465-2.191v-0.004z"></path>
</symbol>
<symbol id="icon-minus" viewBox="0 0 32 32">
<path fill="#dac5a7" style="fill: var(--color1, #dac5a7)" d="M27 16.75h-22c-0.199 0-0.39-0.079-0.53-0.22s-0.22-0.331-0.22-0.53 0.079-0.39 0.22-0.53c0.141-0.141 0.331-0.22 0.53-0.22h22c0.199 0 0.39 0.079 0.53 0.22s0.22 0.331 0.22 0.53-0.079 0.39-0.22 0.53c-0.141 0.141-0.331 0.22-0.53 0.22z"></path>
</symbol>
<symbol id="icon-phone" viewBox="0 0 32 32">
<path fill="#dac5a7" style="fill: var(--color1, #dac5a7)" d="M22 27.75c-9.787 0-17.75-7.963-17.75-17.75 0.002-1.643 0.602-3.229 1.687-4.462s2.583-2.029 4.213-2.238c0.375-0.044 0.754 0.035 1.081 0.224s0.583 0.479 0.732 0.826l2.513 5.862c0.114 0.265 0.161 0.554 0.137 0.842s-0.118 0.565-0.275 0.808l-2.087 3.175c-0.021 0.036-0.033 0.076-0.035 0.117s0.005 0.083 0.022 0.12c0.96 1.969 2.554 3.558 4.525 4.513 0.038 0.017 0.080 0.024 0.122 0.019s0.081-0.020 0.115-0.045l3.137-2.087c0.24-0.161 0.517-0.26 0.806-0.286s0.579 0.021 0.844 0.136l5.863 2.513c0.347 0.148 0.637 0.405 0.826 0.732s0.268 0.706 0.224 1.081c-0.21 1.629-1.005 3.127-2.238 4.213s-2.819 1.685-4.462 1.687zM10.363 4.787h-0.025c-1.266 0.166-2.429 0.786-3.272 1.745s-1.311 2.191-1.315 3.468c0.003 4.309 1.716 8.44 4.763 11.487s7.178 4.76 11.487 4.763c1.277-0.004 2.509-0.472 3.467-1.315s1.579-2.006 1.745-3.272c0.004-0.052-0.008-0.104-0.035-0.149s-0.067-0.080-0.115-0.101l-5.863-2.512c-0.039-0.015-0.081-0.020-0.122-0.016s-0.081 0.018-0.116 0.041l-3.125 2.087c-0.253 0.166-0.544 0.265-0.846 0.287s-0.604-0.034-0.879-0.162c-2.274-1.107-4.113-2.941-5.225-5.213-0.13-0.271-0.188-0.571-0.168-0.871s0.116-0.59 0.281-0.842l2.075-3.175c0.025-0.034 0.040-0.074 0.045-0.115s-0.002-0.084-0.020-0.122l-2.513-5.862c-0.019-0.044-0.051-0.081-0.090-0.108s-0.087-0.041-0.135-0.042z"></path>
</symbol>
<symbol id="icon-pinterest" viewBox="0 0 32 32">
<path fill="#dac5a7" style="fill: var(--color1, #dac5a7)" d="M26.75 14c0 2.756-0.963 5.274-2.71 7.091-1.625 1.69-3.826 2.659-6.040 2.659-2.427 0-3.944-0.884-4.829-1.705l-1.441 6.125c-0.038 0.165-0.131 0.312-0.264 0.417s-0.297 0.163-0.466 0.163c-0.058 0-0.115-0.007-0.171-0.020-0.194-0.045-0.361-0.166-0.466-0.335s-0.138-0.373-0.093-0.566l4-17c0.021-0.098 0.061-0.19 0.118-0.272s0.13-0.152 0.214-0.206c0.084-0.054 0.178-0.090 0.277-0.106s0.199-0.014 0.297 0.009c0.097 0.023 0.189 0.065 0.27 0.124s0.149 0.133 0.201 0.218c0.052 0.085 0.086 0.18 0.1 0.279s0.009 0.2-0.016 0.296l-2.136 9.079c0.35 0.541 1.557 2 4.406 2 3.564 0 7.25-3.086 7.25-8.25-0-1.418-0.327-2.818-0.955-4.090s-1.54-2.383-2.665-3.246c-1.125-0.863-2.435-1.456-3.826-1.733s-2.828-0.23-4.198 0.138c-1.37 0.367-2.638 1.044-3.704 1.98s-1.904 2.103-2.447 3.414c-0.543 1.31-0.778 2.728-0.685 4.144s0.509 2.791 1.218 4.020c0.051 0.085 0.085 0.18 0.1 0.279s0.009 0.199-0.016 0.296-0.069 0.187-0.129 0.266c-0.060 0.079-0.136 0.146-0.222 0.196s-0.182 0.082-0.28 0.095c-0.099 0.013-0.199 0.005-0.295-0.021s-0.186-0.072-0.264-0.134c-0.078-0.062-0.143-0.138-0.192-0.226-0.824-1.428-1.308-3.026-1.416-4.672s0.165-3.293 0.796-4.816c0.631-1.523 1.604-2.881 2.844-3.968s2.713-1.874 4.305-2.301c1.592-0.427 3.262-0.481 4.879-0.16s3.138 1.011 4.446 2.014c1.308 1.004 2.368 2.294 3.097 3.773s1.109 3.105 1.109 4.754z"></path>
</symbol>
<symbol id="icon-plus" viewBox="0 0 32 32">
<path fill="#dac5a7" style="fill: var(--color1, #dac5a7)" d="M27.75 16c0 0.199-0.079 0.39-0.22 0.53s-0.331 0.22-0.53 0.22h-10.25v10.25c0 0.199-0.079 0.39-0.22 0.53s-0.331 0.22-0.53 0.22-0.39-0.079-0.53-0.22c-0.141-0.141-0.22-0.331-0.22-0.53v-10.25h-10.25c-0.199 0-0.39-0.079-0.53-0.22s-0.22-0.331-0.22-0.53 0.079-0.39 0.22-0.53c0.141-0.141 0.331-0.22 0.53-0.22h10.25v-10.25c0-0.199 0.079-0.39 0.22-0.53s0.331-0.22 0.53-0.22 0.39 0.079 0.53 0.22c0.141 0.141 0.22 0.331 0.22 0.53v10.25h10.25c0.199 0 0.39 0.079 0.53 0.22s0.22 0.331 0.22 0.53z"></path>
</symbol>
<symbol id="icon-tiktok" viewBox="0 0 32 32">
<path fill="#dac5a7" style="fill: var(--color1, #dac5a7)" d="M28 9.25c-1.657-0.002-3.246-0.661-4.417-1.833s-1.831-2.76-1.833-4.417c0-0.199-0.079-0.39-0.22-0.53s-0.331-0.22-0.53-0.22h-5c-0.199 0-0.39 0.079-0.53 0.22s-0.22 0.331-0.22 0.53v16.5c-0 0.492-0.133 0.975-0.383 1.399s-0.61 0.772-1.041 1.009c-0.431 0.237-0.918 0.354-1.41 0.339s-0.971-0.162-1.386-0.425c-0.416-0.263-0.753-0.633-0.978-1.071s-0.327-0.928-0.297-1.419c0.030-0.491 0.191-0.965 0.466-1.373s0.655-0.734 1.1-0.945c0.128-0.061 0.237-0.157 0.313-0.277s0.116-0.259 0.116-0.401v-5.336c-0-0.109-0.024-0.217-0.070-0.316s-0.113-0.186-0.196-0.257c-0.083-0.070-0.181-0.122-0.286-0.15s-0.215-0.034-0.323-0.016c-4.35 0.774-7.625 4.745-7.625 9.239 0 2.453 0.975 4.806 2.709 6.541s4.087 2.709 6.541 2.709c2.453 0 4.806-0.975 6.541-2.709s2.709-4.088 2.709-6.541v-5.384c1.907 1.076 4.060 1.639 6.25 1.634 0.199 0 0.39-0.079 0.53-0.22s0.22-0.331 0.22-0.53v-5c0-0.199-0.079-0.39-0.22-0.53s-0.331-0.22-0.53-0.22zM27.25 14.225c-2.095-0.134-4.11-0.857-5.813-2.086-0.112-0.081-0.244-0.129-0.382-0.139s-0.276 0.018-0.398 0.081c-0.123 0.063-0.226 0.159-0.298 0.277s-0.11 0.254-0.109 0.392v6.75c0 2.055-0.817 4.027-2.27 5.48s-3.425 2.27-5.48 2.27c-2.055 0-4.027-0.817-5.48-2.27s-2.27-3.425-2.27-5.48c0-3.465 2.309-6.56 5.5-7.547v3.941c-0.628 0.392-1.142 0.94-1.493 1.592s-0.525 1.383-0.506 2.123c0.019 0.739 0.231 1.461 0.614 2.094s0.926 1.154 1.572 1.513c0.647 0.359 1.376 0.543 2.116 0.533s1.464-0.212 2.102-0.587c0.638-0.375 1.166-0.911 1.533-1.553s0.561-1.369 0.561-2.109v-15.75h3.536c0.176 1.787 0.966 3.458 2.236 4.728s2.941 2.060 4.728 2.236v3.511z"></path>
</symbol>
<symbol id="icon-twitch" viewBox="0 0 32 32">
<path fill="#dac5a7" style="fill: var(--color1, #dac5a7)" d="M26 4.25h-20c-0.464 0-0.909 0.184-1.237 0.513s-0.513 0.773-0.513 1.237v18c0 0.464 0.184 0.909 0.513 1.237s0.773 0.513 1.237 0.513h2.25v4.25c0 0.143 0.041 0.282 0.117 0.402s0.186 0.216 0.315 0.277c0.129 0.061 0.273 0.083 0.414 0.065s0.275-0.076 0.384-0.168l5.723-4.769c0.045-0.037 0.102-0.058 0.16-0.057h5.275c0.411 0.001 0.809-0.143 1.125-0.406l5.363-4.469c0.196-0.165 0.354-0.371 0.462-0.603s0.164-0.486 0.163-0.742v-13.53c0-0.464-0.184-0.909-0.513-1.237s-0.773-0.513-1.237-0.513zM26.25 19.531c0 0.037-0.008 0.073-0.023 0.106s-0.038 0.063-0.067 0.086l-5.363 4.469c-0.045 0.037-0.102 0.058-0.16 0.057h-5.275c-0.411-0.001-0.809 0.143-1.125 0.406l-4.487 3.743v-3.399c0-0.199-0.079-0.39-0.22-0.53s-0.331-0.22-0.53-0.22h-3c-0.066 0-0.13-0.026-0.177-0.073s-0.073-0.111-0.073-0.177v-18c0-0.066 0.026-0.13 0.073-0.177s0.11-0.073 0.177-0.073h20c0.066 0 0.13 0.026 0.177 0.073s0.073 0.11 0.073 0.177v13.531zM21.75 11v6c0 0.199-0.079 0.39-0.22 0.53s-0.331 0.22-0.53 0.22-0.39-0.079-0.53-0.22c-0.141-0.141-0.22-0.331-0.22-0.53v-6c0-0.199 0.079-0.39 0.22-0.53s0.331-0.22 0.53-0.22 0.39 0.079 0.53 0.22c0.141 0.141 0.22 0.331 0.22 0.53zM15.75 11v6c0 0.199-0.079 0.39-0.22 0.53s-0.331 0.22-0.53 0.22-0.39-0.079-0.53-0.22c-0.141-0.141-0.22-0.331-0.22-0.53v-6c0-0.199 0.079-0.39 0.22-0.53s0.331-0.22 0.53-0.22 0.39 0.079 0.53 0.22c0.141 0.141 0.22 0.331 0.22 0.53z"></path>
</symbol>
<symbol id="icon-twitter" viewBox="0 0 32 32">
<path fill="#dac5a7" style="fill: var(--color1, #dac5a7)" d="M30.688 8.713c-0.057-0.136-0.152-0.253-0.274-0.335s-0.266-0.127-0.413-0.128h-3.95c-0.488-0.897-1.206-1.647-2.081-2.175s-1.873-0.812-2.894-0.825c-1.534-0.007-3.008 0.595-4.1 1.672s-1.712 2.544-1.725 4.078v1.088c-5.3-1.262-9.675-5.575-9.725-5.612-0.096-0.095-0.217-0.162-0.348-0.195s-0.269-0.028-0.399 0.011c-0.129 0.040-0.246 0.114-0.337 0.214s-0.153 0.224-0.179 0.356c-1.087 5.95 0.7 9.925 2.388 12.213 0.895 1.225 1.994 2.286 3.25 3.137-1.938 2.35-5.125 3.575-5.162 3.587-0.106 0.039-0.202 0.103-0.281 0.185s-0.136 0.182-0.169 0.29c-0.035 0.106-0.046 0.218-0.031 0.329s0.056 0.216 0.118 0.309c0.125 0.187 1.35 1.837 5.625 1.837 8.713 0 16-6.737 16.7-15.387l3.825-3.837c0.108-0.102 0.182-0.235 0.211-0.38s0.012-0.297-0.049-0.432zM25.437 12.5c-0.13 0.13-0.206 0.304-0.212 0.488-0.513 8-7.2 14.262-15.225 14.262-1.738 0-2.85-0.3-3.513-0.6 1.413-0.712 3.725-2.112 5.138-4.237 0.056-0.088 0.094-0.187 0.111-0.29s0.013-0.209-0.011-0.31c-0.027-0.104-0.075-0.201-0.142-0.285s-0.151-0.153-0.246-0.202c-0.025 0-1.9-0.975-3.525-3.2-1.938-2.65-2.7-5.887-2.275-9.625 1.825 1.55 5.762 4.475 10.338 5.238 0.108 0.020 0.219 0.017 0.325-0.011s0.205-0.079 0.288-0.149c0.084-0.071 0.151-0.159 0.196-0.259s0.068-0.208 0.066-0.318v-2c0.010-1.133 0.468-2.216 1.273-3.012s1.894-1.241 3.027-1.238c0.819 0.012 1.617 0.258 2.299 0.71s1.221 1.091 1.551 1.84c0.057 0.135 0.153 0.249 0.275 0.33s0.266 0.122 0.412 0.12h2.6l-2.75 2.75z"></path>
</symbol>
<symbol id="icon-whatsapp" viewBox="0 0 32 32">
<path fill="#dac5a7" style="fill: var(--color1, #dac5a7)" d="M23.335 18.329l-4-2c-0.118-0.059-0.25-0.085-0.381-0.077s-0.259 0.051-0.369 0.125l-1.96 1.306c-0.992-0.508-1.799-1.315-2.307-2.308l1.307-1.959c0.073-0.11 0.116-0.237 0.125-0.369s-0.018-0.263-0.077-0.381l-2-4c-0.062-0.125-0.158-0.23-0.277-0.304s-0.256-0.112-0.396-0.112c-1.26 0-2.468 0.5-3.359 1.391s-1.391 2.099-1.391 3.359c0.003 2.85 1.137 5.582 3.152 7.598s4.748 3.149 7.598 3.152c1.26 0 2.468-0.5 3.359-1.391s1.391-2.099 1.391-3.359c0-0.139-0.039-0.276-0.112-0.395s-0.178-0.214-0.303-0.277zM19 22.25c-2.452-0.003-4.803-0.979-6.537-2.713s-2.71-4.085-2.713-6.537c0-0.784 0.284-1.542 0.799-2.134s1.227-0.977 2.004-1.085l1.582 3.165-1.299 1.947c-0.068 0.103-0.11 0.221-0.122 0.343s0.007 0.247 0.054 0.36c0.69 1.64 1.994 2.944 3.634 3.634 0.114 0.047 0.238 0.066 0.36 0.054s0.241-0.054 0.343-0.122l1.948-1.299 3.165 1.582c-0.108 0.777-0.493 1.489-1.085 2.004s-1.349 0.799-2.134 0.799zM16 3.25c-2.21-0-4.383 0.574-6.304 1.666s-3.526 2.665-4.656 4.565c-1.13 1.9-1.747 4.060-1.79 6.27s0.489 4.393 1.544 6.335l-1.452 4.359c-0.103 0.308-0.118 0.639-0.043 0.956s0.236 0.606 0.466 0.836c0.23 0.23 0.519 0.391 0.836 0.466s0.647 0.060 0.956-0.043l4.359-1.453c1.706 0.926 3.601 1.45 5.541 1.532s3.872-0.279 5.651-1.057 3.356-1.952 4.612-3.432c1.256-1.48 2.157-3.228 2.635-5.109s0.52-3.847 0.123-5.747c-0.397-1.9-1.223-3.685-2.414-5.217s-2.717-2.773-4.461-3.626c-1.744-0.853-3.659-1.297-5.6-1.298zM16 27.25c-1.978 0.001-3.92-0.52-5.633-1.51-0.114-0.066-0.243-0.101-0.375-0.101-0.081 0-0.161 0.013-0.238 0.039l-4.674 1.558c-0.044 0.015-0.091 0.017-0.136 0.006s-0.087-0.034-0.119-0.067c-0.033-0.033-0.056-0.074-0.067-0.119s-0.009-0.092 0.006-0.136l1.558-4.669c0.034-0.101 0.046-0.208 0.035-0.314s-0.044-0.208-0.097-0.3c-1.241-2.144-1.74-4.637-1.419-7.093s1.443-4.738 3.193-6.491 4.029-2.88 6.485-3.205c2.455-0.325 4.95 0.169 7.096 1.406s3.824 3.147 4.773 5.435c0.949 2.288 1.117 4.825 0.477 7.218s-2.051 4.508-4.016 6.016-4.372 2.327-6.849 2.328z"></path>
</symbol>
<symbol id="icon-youtube" viewBox="0 0 32 32">
<path fill="#dac5a7" style="fill: var(--color1, #dac5a7)" d="M20.416 15.375l-6-4c-0.113-0.075-0.244-0.119-0.38-0.125s-0.271 0.024-0.39 0.088c-0.12 0.064-0.22 0.16-0.289 0.276s-0.106 0.25-0.106 0.386v8c-0 0.136 0.037 0.269 0.106 0.386s0.17 0.212 0.289 0.276c0.12 0.064 0.255 0.095 0.39 0.088s0.267-0.050 0.38-0.125l6-4c0.103-0.068 0.188-0.161 0.246-0.27s0.089-0.231 0.089-0.355c0-0.124-0.031-0.246-0.089-0.355s-0.143-0.202-0.246-0.27zM14.75 18.599v-5.197l3.897 2.599-3.897 2.599zM29.050 8.75c-0.109-0.422-0.316-0.811-0.604-1.137s-0.651-0.579-1.056-0.738c-4.265-1.651-11.106-1.625-11.39-1.625s-7.125-0.026-11.395 1.625c-0.404 0.159-0.765 0.413-1.053 0.738s-0.494 0.715-0.602 1.137c-0.319 1.236-0.7 3.5-0.7 7.25s0.381 6.014 0.7 7.25c0.109 0.422 0.316 0.811 0.604 1.137s0.65 0.579 1.056 0.738c4.265 1.651 11.105 1.625 11.39 1.625h0.089c0.864 0 7.25-0.055 11.306-1.625 0.405-0.159 0.767-0.412 1.056-0.738s0.496-0.716 0.604-1.137c0.319-1.234 0.7-3.491 0.7-7.25s-0.38-6.014-0.705-7.25zM27.597 22.875c-0.048 0.192-0.141 0.37-0.272 0.519s-0.294 0.265-0.478 0.338c-4 1.541-10.775 1.517-10.847 1.517s-6.839 0.025-10.844-1.521c-0.184-0.073-0.348-0.189-0.478-0.338s-0.223-0.327-0.272-0.519c-0.301-1.149-0.656-3.274-0.656-6.871s0.355-5.722 0.652-6.875c0.048-0.192 0.141-0.37 0.272-0.519s0.294-0.265 0.478-0.338c3.855-1.485 10.289-1.518 10.818-1.518h0.030c0.067 0 6.839-0.025 10.844 1.521 0.184 0.073 0.348 0.189 0.478 0.338s0.223 0.327 0.272 0.519c0.297 1.149 0.653 3.274 0.653 6.875s-0.351 5.719-0.649 6.871z"></path>
</symbol>
</defs>
</svg>